<svg width="25.000000" height="23.707275" viewBox="0 0 25 23.7073" fill="none" xmlns="http://www.w3.org/2000/svg" xmlns:xlink="http://www.w3.org/1999/xlink">
	<desc>
			Created with Pixso.
	</desc>
	<defs/>
	<path id="Vector" d="M15.0439 0.365723C15.5063 0.0332031 16.1562 -0.121826 16.7949 0.112061C18.1528 0.609375 19.4141 1.33911 20.5225 2.26831C21.0435 2.70581 21.2349 3.34448 21.1772 3.90942C21.0835 4.85059 21.2485 5.75952 21.7021 6.54199C22.1025 7.23804 22.7051 7.78809 23.4399 8.17554L23.7212 8.31323C24.2388 8.54688 24.6987 9.0332 24.8149 9.70435C25.0615 11.127 25.0615 12.5815 24.8149 14.0044C24.7109 14.6094 24.3271 15.063 23.8735 15.3181L23.7212 15.3967C22.8584 15.7842 22.1538 16.3843 21.7012 17.1667C21.2485 17.9504 21.0835 18.8579 21.1772 19.7993C21.2339 20.3643 21.0435 21.0042 20.5225 21.4404C19.4141 22.3696 18.1528 23.0991 16.7949 23.5967C16.5049 23.7004 16.1934 23.7317 15.8882 23.6875C15.5835 23.6431 15.2939 23.5249 15.0449 23.343C14.2749 22.7917 13.4038 22.4792 12.5 22.4792C11.5962 22.4792 10.7251 22.7905 9.95654 23.343C9.70752 23.5251 9.41748 23.6436 9.1123 23.6877C8.80713 23.7319 8.49561 23.7007 8.20508 23.5967C6.84717 23.0991 5.58594 22.3696 4.47754 21.4404C4.24316 21.241 4.06055 20.9873 3.94629 20.7012C3.83203 20.415 3.78955 20.1055 3.82275 19.7993C3.9165 18.8579 3.75 17.9492 3.29785 17.1667C2.88574 16.468 2.28271 15.9014 1.56006 15.533L1.27881 15.3955C0.99707 15.2705 0.749512 15.0784 0.559082 14.8359C0.368164 14.5935 0.240234 14.3079 0.185059 14.0044C-0.0615234 12.5815 -0.0615234 11.127 0.185059 9.70435C0.289062 9.09937 0.672852 8.64551 1.12646 8.39062L1.27881 8.31323C2.1416 7.92432 2.84619 7.32568 3.29883 6.54199C3.75 5.75952 3.9165 4.85059 3.82275 3.90942C3.78955 3.60327 3.83203 3.29346 3.94629 3.00757C4.06055 2.72144 4.24316 2.46753 4.47754 2.26831C5.58594 1.33911 6.84717 0.609375 8.20508 0.112061C8.49512 0.00830078 8.80664 -0.0227051 9.11182 0.0214844C9.4165 0.0656738 9.70605 0.183838 9.95508 0.365723C10.7236 0.918213 11.5952 1.22949 12.5 1.22949C13.4048 1.22949 14.2749 0.918213 15.0439 0.365723ZM16.2397 2.5769C15.1577 3.28955 13.8813 3.72949 12.5 3.72949C11.1187 3.72949 9.84277 3.28809 8.76025 2.5769C7.88965 2.92822 7.07373 3.40039 6.33496 3.97949C6.41016 5.27075 6.15381 6.5957 5.46387 7.79199C4.77246 8.98682 3.75391 9.87061 2.59766 10.4519C2.46729 11.3813 2.46729 12.3247 2.59766 13.2544C3.75391 13.8354 4.77246 14.7192 5.46387 15.9167C6.15381 17.1106 6.41016 18.4355 6.33496 19.7268C7.07324 20.3062 7.88965 20.7788 8.76025 21.1304C9.84277 20.418 11.1187 19.978 12.5 19.978C13.8813 19.978 15.1577 20.4192 16.2397 21.1304C17.1104 20.7791 17.9263 20.3069 18.665 19.728C18.5898 18.4355 18.8462 17.1106 19.5361 15.9155C20.2261 14.7192 21.2461 13.8354 22.4023 13.2529C22.5327 12.3242 22.5327 11.3818 22.4023 10.4531C21.2461 9.87061 20.2275 8.98682 19.5361 7.79053C18.8462 6.5957 18.5898 5.27075 18.665 3.97827C17.9268 3.39917 17.1104 2.92822 16.2397 2.5769ZM12.5 6.85449C13.8262 6.85449 15.0977 7.3811 16.0356 8.31885C16.9731 9.25659 17.5 10.5283 17.5 11.8542C17.5 13.1804 16.9731 14.4521 16.0356 15.3899C15.0977 16.3274 13.8262 16.8542 12.5 16.8542C11.1738 16.8542 9.90234 16.3274 8.96436 15.3899C8.02686 14.4521 7.5 13.1804 7.5 11.8542C7.5 10.5283 8.02686 9.25659 8.96436 8.31885C9.90234 7.3811 11.1738 6.85449 12.5 6.85449ZM12.5 9.35425C11.8369 9.35425 11.2012 9.61768 10.7324 10.0867C10.2637 10.5554 10 11.1914 10 11.8542C10 12.5173 10.2637 13.1533 10.7324 13.6221C11.2012 14.0908 11.8369 14.3542 12.5 14.3542C13.1631 14.3542 13.7988 14.0908 14.2676 13.6221C14.7368 13.1533 15 12.5173 15 11.8542C15 11.1914 14.7368 10.5554 14.2676 10.0867C13.7988 9.61768 13.1631 9.35425 12.5 9.35425Z" fill="#FEFEFE" fill-opacity="1.000000" fill-rule="evenodd"/>
</svg>
