<svg width="16" height="17" viewBox="0 0 16 17" fill="none" xmlns="http://www.w3.org/2000/svg">
<path d="M10.7885 2.35417H11H13.1429C13.3406 2.35417 13.4792 2.50972 13.4792 2.66667C13.4792 2.82362 13.3406 2.97917 13.1429 2.97917H2.85714C2.65943 2.97917 2.52083 2.82362 2.52083 2.66667C2.52083 2.50972 2.65943 2.35417 2.85714 2.35417H5H5.21145L5.36306 2.20677L5.97163 1.6151C6.02829 1.56002 6.12073 1.52083 6.20857 1.52083H9.79143C9.87927 1.52083 9.97171 1.56002 10.0284 1.6151L10.6369 2.20677L10.7885 2.35417ZM4.57143 15.4792C3.90229 15.4792 3.37798 14.9486 3.37798 14.3333V6C3.37798 5.38472 3.90229 4.85417 4.57143 4.85417H11.4286C12.0977 4.85417 12.622 5.38472 12.622 6V14.3333C12.622 14.9486 12.0977 15.4792 11.4286 15.4792H4.57143Z" fill="#F6F6F6" stroke="#FEFEFE" stroke-width="1.04167"/>
</svg>
