<svg width="16" height="17" viewBox="0 0 16 17" fill="none" xmlns="http://www.w3.org/2000/svg">
<path d="M2.75 15.0208H13.25C13.3108 15.0208 13.3691 15.045 13.412 15.088C13.455 15.1309 13.4792 15.1892 13.4792 15.25C13.4792 15.3108 13.455 15.3691 13.412 15.412L13.7803 15.7803L13.412 15.412C13.3691 15.455 13.3108 15.4792 13.25 15.4792H2.75C2.68922 15.4792 2.63093 15.455 2.58796 15.412C2.54498 15.3691 2.52083 15.3108 2.52083 15.25C2.52083 15.1892 2.54498 15.1309 2.58796 15.088C2.63093 15.045 2.68922 15.0208 2.75 15.0208ZM2.52083 11.5784C2.52083 11.1861 2.67667 10.8099 2.95407 10.5325L9.16118 4.32539C9.3483 4.13827 9.6517 4.13827 9.83882 4.32539L10.6746 5.16118C10.8617 5.3483 10.8617 5.6517 10.6746 5.83882L4.4675 12.0459C4.1901 12.3233 3.81387 12.4792 3.42157 12.4792H3C2.73536 12.4792 2.52083 12.2646 2.52083 12V11.5784ZM11.325 2.83894C11.138 2.6518 11.1381 2.3485 11.3252 2.16141L11.4112 2.07539C11.5983 1.88827 11.9017 1.88827 12.0888 2.07539L12.4571 1.70711L12.0888 2.07539L12.9246 2.91118C13.1117 3.0983 13.1117 3.4017 12.9246 3.58882L12.8383 3.67512C12.6511 3.86229 12.3477 3.86224 12.1606 3.67501L11.325 2.83894Z" fill="#F6F6F6" stroke="#FEFEFE" stroke-width="1.04167"/>
</svg>
