<svg width="20" height="10" viewBox="0 0 20 10" fill="none" xmlns="http://www.w3.org/2000/svg">
<path d="M5 8.59998H8.5V9.5H5C3.80653 9.5 2.66194 9.02588 1.81802 8.18197C0.974105 7.33805 0.5 6.19347 0.5 5C0.5 3.80653 0.974105 2.66195 1.81802 1.81803C2.66194 0.974115 3.80653 0.5 5 0.5H8.5V1.40002H5C4.04522 1.40002 3.12955 1.7793 2.45441 2.45443C1.77929 3.12956 1.4 4.04522 1.4 5C1.4 5.95478 1.77929 6.87044 2.45441 7.54557C3.12955 8.2207 4.04522 8.59998 5 8.59998ZM13.5 4.5V5.5H6.5V4.5H13.5ZM15 1.40002H11.5V0.5H15C16.1935 0.5 17.3381 0.974115 18.182 1.81803C19.0259 2.66195 19.5 3.80653 19.5 5C19.5 6.19347 19.0259 7.33805 18.182 8.18197C17.3381 9.02588 16.1935 9.5 15 9.5H11.5V8.59998H15C15.9548 8.59998 16.8705 8.2207 17.5456 7.54557C18.2207 6.87044 18.6 5.95478 18.6 5C18.6 4.04522 18.2207 3.12956 17.5456 2.45443C16.8705 1.7793 15.9548 1.40002 15 1.40002Z" fill="#FEFEFE" stroke="#FEFEFE"/>
</svg>
