<svg width="20" height="20" viewBox="0 0 20 20" fill="none" xmlns="http://www.w3.org/2000/svg">
<path d="M14.6641 9.23077C14.6646 8.23582 14.3461 7.26691 13.7555 6.46621L13.7345 6.43768L13.7008 6.44886L10.2278 7.60269L10.2277 7.60271C10.0799 7.65201 9.91997 7.65201 9.77209 7.60271L9.77204 7.60269L6.29899 6.44886L6.26532 6.43767L6.24428 6.46624C5.80702 7.05999 5.51677 7.74894 5.39733 8.47659C5.27789 9.20424 5.33268 9.94983 5.5572 10.6522C5.78172 11.3546 6.16957 11.9937 6.68893 12.5172C7.20828 13.0406 7.84435 13.4335 8.54493 13.6635C9.24552 13.8935 9.99066 13.9542 10.7192 13.8404C11.4478 13.7267 12.139 13.4419 12.7362 13.0093C13.3333 12.5767 13.8194 12.0087 14.1545 11.3519C14.4897 10.6951 14.6643 9.96814 14.6641 9.23077ZM14.6641 9.23077L14.6153 9.23075M14.6641 9.23077C14.6641 9.23076 14.6641 9.23075 14.6641 9.23073L14.6153 9.23075M14.6153 9.23075C14.6157 8.24623 14.3006 7.28749 13.7162 6.49519H6.2836C5.85092 7.08272 5.5637 7.76447 5.44551 8.4845C5.32733 9.20453 5.38154 9.94232 5.60371 10.6373C5.82588 11.3324 6.20967 11.9648 6.72359 12.4828C7.23751 13.0007 7.86691 13.3895 8.56017 13.6171C9.25342 13.8447 9.99076 13.9047 10.7117 13.7922C11.4326 13.6797 12.1166 13.3978 12.7075 12.9697C13.2984 12.5417 13.7794 11.9796 14.111 11.3297C14.4427 10.6797 14.6155 9.96041 14.6153 9.23075ZM1.55388 4.86715L1.48962 4.84574V4.91348V11.5384C1.48962 11.7295 1.41372 11.9127 1.27862 12.0478C1.14352 12.1829 0.960285 12.2588 0.769224 12.2588C0.578163 12.2588 0.394928 12.1829 0.259827 12.0478C0.124727 11.9127 0.0488281 11.7295 0.0488281 11.5384V3.84618C0.0488169 3.69497 0.096383 3.54759 0.184788 3.42493C0.273193 3.30226 0.397955 3.21052 0.541398 3.1627L9.77209 0.0858022C9.91997 0.0365036 10.0799 0.0365036 10.2277 0.0858018L19.425 3.15157V3.15638L19.4584 3.16751C19.6019 3.2153 19.7267 3.30703 19.8151 3.4297C19.9036 3.55237 19.9512 3.69976 19.9512 3.85099C19.9512 4.00221 19.9036 4.1496 19.8151 4.27227C19.7267 4.39494 19.6019 4.48667 19.4584 4.53446L19.4739 4.58079L19.4584 4.53446L15.2162 5.94791L15.1576 5.96742L15.1901 6.01991C16.0399 7.39484 16.3097 9.05066 15.9404 10.6243C15.5712 12.1979 14.593 13.5608 13.2203 14.4142L13.1377 14.4655L13.2282 14.5011C14.9432 15.1761 16.4372 16.3971 17.5261 18.0676C17.627 18.2276 17.6611 18.4208 17.6208 18.6056C17.5805 18.7906 17.469 18.9522 17.3105 19.0556C17.1519 19.159 16.9591 19.1959 16.7736 19.1582C16.5882 19.1206 16.425 19.0115 16.3194 18.8546C14.8618 16.6187 12.5585 15.3357 9.99991 15.3357C7.44124 15.3357 5.13778 16.6188 3.68021 18.855L3.67985 18.8555C3.62884 18.9362 3.5623 19.006 3.4841 19.0608C3.40589 19.1155 3.31758 19.1542 3.2243 19.1745C3.13102 19.1949 3.03463 19.1964 2.94073 19.1792C2.84683 19.1619 2.75729 19.1262 2.67733 19.074C2.59736 19.0219 2.52856 18.9544 2.47493 18.8754C2.42129 18.7964 2.38389 18.7075 2.36489 18.614C2.3459 18.5204 2.34569 18.424 2.36428 18.3304C2.38287 18.2367 2.41989 18.1477 2.47319 18.0685L2.47358 18.0679C3.56254 16.3971 5.05081 15.1761 6.77162 14.5012L6.86227 14.4656L6.77955 14.4142C5.40554 13.5608 4.42638 12.1969 4.05706 10.6222C3.68774 9.04743 3.95845 7.39046 4.80975 6.01513L4.84225 5.96262L4.78366 5.9431L1.55388 4.86715ZM9.98447 6.15883L9.99991 6.16397L10.0154 6.15883L16.8134 3.8925L16.9523 3.84618L16.8134 3.79986L10.0154 1.53353L9.99991 1.52838L9.98447 1.53353L3.18645 3.79986L3.04751 3.84618L3.18645 3.8925L9.98447 6.15883Z" fill="#FEFEFE" stroke="#FEFEFE" stroke-width="0.0976562"/>
</svg>
