<svg width="14" height="15" viewBox="0 0 14 15" fill="none" xmlns="http://www.w3.org/2000/svg">
<path d="M11.0345 1.80202V1.85085H11.0833H12.8333C13.131 1.85085 13.4158 1.96004 13.6252 2.15332C13.8344 2.34649 13.9512 2.60759 13.9512 2.87894V13.6482C13.9512 13.9195 13.8344 14.1806 13.6252 14.3738C13.4158 14.5671 13.131 14.6763 12.8333 14.6763H1.16667C0.868992 14.6763 0.584219 14.5671 0.374828 14.3738C0.165568 14.1806 0.0488281 13.9195 0.0488281 13.6482V2.87894C0.0488281 2.60759 0.165569 2.34649 0.374828 2.15332C0.584219 1.96004 0.868992 1.85085 1.16667 1.85085H2.91667H2.96549V1.80202V1.26356C2.96549 1.13502 3.02078 1.01087 3.12064 0.918688C3.22063 0.826386 3.35704 0.773926 3.5 0.773926C3.64296 0.773926 3.77937 0.826386 3.87936 0.918688C3.97922 1.01087 4.03451 1.13502 4.03451 1.26356V1.80202V1.85085H4.08333H9.91667H9.9655V1.80202V1.26356C9.9655 1.13502 10.0208 1.01087 10.1206 0.918689C10.2206 0.826386 10.357 0.773926 10.5 0.773926C10.643 0.773926 10.7794 0.826386 10.8794 0.918688C10.9792 1.01087 11.0345 1.13502 11.0345 1.26356V1.80202ZM2.96549 2.87894V2.83012H2.91667H1.16667H1.11784V2.87894V5.03279V5.08162H1.16667H12.8333H12.8822V5.03279V2.87894V2.83012H12.8333H11.0833H11.0345V2.87894V3.41741C11.0345 3.54595 10.9792 3.67009 10.8794 3.76228C10.7794 3.85458 10.643 3.90704 10.5 3.90704C10.357 3.90704 10.2206 3.85458 10.1206 3.76228C10.0208 3.67009 9.9655 3.54595 9.9655 3.41741V2.87894V2.83012H9.91667H4.08333H4.03451V2.87894V3.41741C4.03451 3.54595 3.97922 3.67009 3.87936 3.76228C3.77937 3.85458 3.64296 3.90704 3.5 3.90704C3.35704 3.90704 3.22063 3.85458 3.12064 3.76228C3.02078 3.67009 2.96549 3.54595 2.96549 3.41741V2.87894ZM12.8333 13.697H12.8822V13.6482V6.10971V6.06088H12.8333H1.16667H1.11784V6.10971V13.6482V13.697H1.16667H12.8333Z" fill="#FEFEFE" stroke="#FEFEFE" stroke-width="0.0976562"/>
</svg>
