<svg width="19" height="20" viewBox="0 0 19 20" fill="none" xmlns="http://www.w3.org/2000/svg">
<path d="M9.33333 2.52035C10.3003 2.52035 11.2276 2.90446 11.9113 3.58818C12.5951 4.27191 12.9792 5.19924 12.9792 6.16618C12.9792 7.13311 12.5951 8.06045 11.9113 8.74417C11.2276 9.4279 10.3003 9.81201 9.33333 9.81201C8.3664 9.81201 7.43907 9.4279 6.75534 8.74417C6.07161 8.06045 5.6875 7.13311 5.6875 6.16618C5.6875 5.19924 6.07161 4.27191 6.75534 3.58818C7.43907 2.90446 8.3664 2.52035 9.33333 2.52035ZM9.33333 12.937C11.5722 12.937 13.5724 13.3915 14.9936 14.1021C16.4459 14.8282 17.1458 15.7352 17.1458 16.5828V18.1453H1.52083V16.5828C1.52083 15.7352 2.22077 14.8282 3.67303 14.1021C5.09427 13.3915 7.09451 12.937 9.33333 12.937Z" fill="#FEFEFE" stroke="#FEFEFE" stroke-width="1.04167"/>
</svg>
