<svg width="15" height="11" viewBox="0 0 15 11" fill="none" xmlns="http://www.w3.org/2000/svg">
<path d="M7.33333 3.7251C6.8029 3.7251 6.29419 3.93581 5.91912 4.31088C5.54405 4.68596 5.33333 5.19466 5.33333 5.7251C5.33333 6.25553 5.54405 6.76424 5.91912 7.13931C6.29419 7.51438 6.8029 7.7251 7.33333 7.7251C7.86377 7.7251 8.37247 7.51438 8.74755 7.13931C9.12262 6.76424 9.33333 6.25553 9.33333 5.7251C9.33333 5.19466 9.12262 4.68596 8.74755 4.31088C8.37247 3.93581 7.86377 3.7251 7.33333 3.7251ZM7.33333 9.05843C6.44928 9.05843 5.60143 8.70724 4.97631 8.08212C4.35119 7.457 4 6.60915 4 5.7251C4 4.84104 4.35119 3.9932 4.97631 3.36808C5.60143 2.74295 6.44928 2.39176 7.33333 2.39176C8.21739 2.39176 9.06524 2.74295 9.69036 3.36808C10.3155 3.9932 10.6667 4.84104 10.6667 5.7251C10.6667 6.60915 10.3155 7.457 9.69036 8.08212C9.06524 8.70724 8.21739 9.05843 7.33333 9.05843ZM7.33333 0.725098C4 0.725098 1.15333 2.79843 0 5.7251C1.15333 8.65176 4 10.7251 7.33333 10.7251C10.6667 10.7251 13.5133 8.65176 14.6667 5.7251C13.5133 2.79843 10.6667 0.725098 7.33333 0.725098Z" fill="#F6F6F6"/>
</svg>
