<svg width="20" height="14" viewBox="0 0 20 14" fill="none" xmlns="http://www.w3.org/2000/svg">
<path d="M16.4692 4.5C16.4692 5.59508 15.5896 6.47917 14.5 6.47917C13.9751 6.47917 13.4717 6.27065 13.1005 5.89948C12.7294 5.52832 12.5208 5.02491 12.5208 4.5C12.5208 3.97509 12.7294 3.47168 13.1005 3.10052C13.4717 2.72935 13.9751 2.52083 14.5 2.52083C15.5896 2.52083 16.4692 3.40492 16.4692 4.5ZM9.46917 3C9.46917 4.37462 8.37009 5.47917 7 5.47917C5.62765 5.47917 4.52083 4.37235 4.52083 3C4.52083 1.62765 5.62765 0.520833 7 0.520833C8.37009 0.520833 9.46917 1.62538 9.46917 3ZM9.52083 11.75C9.52083 11.484 9.65006 11.2124 9.95508 10.9312C10.2636 10.6467 10.7159 10.389 11.2573 10.1723C12.3409 9.73861 13.6501 9.52083 14.5 9.52083C15.3499 9.52083 16.6591 9.73861 17.7427 10.1723C18.2841 10.389 18.7364 10.6467 19.0449 10.9312C19.3499 11.2124 19.4792 11.484 19.4792 11.75V13C19.4792 13.2624 19.2624 13.4792 19 13.4792H10C9.73765 13.4792 9.52083 13.2624 9.52083 13V11.75ZM0.520833 11.5C0.520833 11.1089 0.712656 10.7279 1.11919 10.353C1.52928 9.97482 2.12214 9.63897 2.81975 9.3598C4.21583 8.80114 5.90005 8.52083 7 8.52083C7.29896 8.52083 7.64264 8.54309 8.01432 8.58613C6.74505 9.68641 6.47917 10.9352 6.47917 11.75V13.4792H1C0.737648 13.4792 0.520833 13.2624 0.520833 13V11.5Z" fill="#FEFEFE" stroke="#FEFEFE" stroke-width="1.04167"/>
</svg>
