<svg width="20" height="16" viewBox="0 0 20 16" fill="none" xmlns="http://www.w3.org/2000/svg">
<path d="M17.7693 5.99895H17.7693H18.0645C18.2486 5.99895 18.4251 6.07207 18.5552 6.20222C18.6854 6.33237 18.7585 6.50888 18.7585 6.69294V9.27358C18.7585 9.45764 18.6854 9.63416 18.5552 9.76431C18.4251 9.89446 18.2486 9.96757 18.0645 9.96757H17.4194C17.2964 9.96764 17.1765 10.0057 17.076 10.0766C16.9755 10.1474 16.8994 10.2476 16.8581 10.3634L15.3976 14.4513L15.386 14.4837H15.3516H14.3258H14.2914L14.2798 14.4513L13.9718 13.5892L13.9717 13.5892C13.9304 13.4734 13.8543 13.3732 13.7538 13.3024C13.6533 13.2315 13.5334 13.1934 13.4104 13.1934H7.87986C7.75691 13.1934 7.63698 13.2315 7.5365 13.3024C7.43602 13.3732 7.3599 13.4734 7.31856 13.5892L7.31856 13.5892L7.01049 14.4513L6.99892 14.4837H6.96451H5.93871H5.9043L5.89272 14.4513L4.83711 11.4957C4.81023 11.4209 4.76867 11.3522 4.71486 11.2937L4.7148 11.2937C3.94716 10.4558 3.43988 9.41277 3.25484 8.29162C3.06979 7.17047 3.21497 6.0197 3.67267 4.97964C4.13036 3.93958 4.88081 3.05517 5.83248 2.43426C6.78416 1.81335 7.89594 1.48277 9.03225 1.48283H11.6128H11.6129V1.53165C12.849 1.53011 14.0533 1.92365 15.05 2.65484C16.0467 3.38603 16.7836 4.4166 17.1532 5.59617L17.7693 5.99895ZM17.7693 5.99895C17.6423 5.99909 17.5186 5.95867 17.4161 5.88358C17.3137 5.80851 17.2379 5.7027 17.1998 5.58157L17.7693 5.99895ZM19.9512 6.69277V6.69294V9.27358C19.9512 9.77396 19.7524 10.2538 19.3986 10.6077C19.0448 10.9615 18.5649 11.1602 18.0645 11.1602H17.8742H17.8398L17.8282 11.1926L16.5209 14.8523C16.4348 15.0935 16.2762 15.3022 16.0669 15.4497C15.8575 15.5972 15.6077 15.6764 15.3516 15.6764H14.3258C14.0697 15.6764 13.8199 15.5972 13.6105 15.4497C13.4012 15.3022 13.2426 15.0935 13.1565 14.8523L13.0016 14.4185L12.9901 14.386H12.9556H8.33467H8.30025L8.28868 14.4185L8.13385 14.8523C8.04774 15.0935 7.88914 15.3022 7.6798 15.4497C7.47046 15.5972 7.22062 15.6764 6.96452 15.6764H5.93871C5.6826 15.6764 5.43276 15.5972 5.22342 15.4497C5.01408 15.3022 4.85548 15.0935 4.76937 14.8523L4.76936 14.8523L3.75565 12.0168L3.75249 12.008L3.74627 12.0009C2.78856 10.917 2.18888 9.56382 2.02917 8.12626L2.02127 8.05516L1.95794 8.08842C1.74185 8.20192 1.56089 8.37231 1.43462 8.58119C1.30835 8.79007 1.24157 9.02949 1.24149 9.27357V9.27358C1.24149 9.43174 1.17867 9.58342 1.06683 9.69526C0.954998 9.80709 0.803318 9.86992 0.645161 9.86992C0.487004 9.86992 0.335324 9.80709 0.22349 9.69526C0.111666 9.58343 0.0488392 9.43177 0.0488281 9.27363C0.0498046 8.70918 0.239374 8.16124 0.58742 7.71687C0.935474 7.27248 1.42205 6.95715 1.96984 6.82097L2.0039 6.81251L2.00673 6.77753C2.14987 5.01179 2.95182 3.36445 4.25335 2.16263C5.55488 0.960806 7.26078 0.292409 9.03231 0.29016L9.90967 0.29016H10.5418H10.921L11.2159 0.290165L11.2166 0.290155L11.2159 0.241332L11.2166 0.290155L11.2167 0.290154L11.2168 0.290153L11.2172 0.290147L11.219 0.290122L11.2259 0.290032L11.2517 0.289733L11.3391 0.289027C11.4089 0.28865 11.4953 0.288654 11.5624 0.290148C13.243 0.327527 14.509 0.759676 15.6663 1.57162C16.8242 2.384 17.5656 3.34277 18.0826 4.53481C18.1171 4.61522 18.1508 4.69546 18.1829 4.77559L18.1941 4.80356L18.2241 4.80611C18.6963 4.84619 19.1361 5.06253 19.4561 5.41209C19.7761 5.76166 19.9529 6.21885 19.9512 6.69277ZM15.435 7.01552C15.435 7.19726 15.3811 7.37493 15.2802 7.52604C15.1792 7.67716 15.0357 7.79494 14.8678 7.86449C14.6999 7.93404 14.5151 7.95223 14.3368 7.91678C14.1586 7.88132 13.9949 7.7938 13.8664 7.66529C13.7378 7.53678 13.6503 7.37304 13.6149 7.19479C13.5794 7.01654 13.5976 6.83178 13.6672 6.66387C13.7367 6.49596 13.8545 6.35244 14.0056 6.25147C14.1567 6.1505 14.3344 6.09661 14.5161 6.09661C14.7598 6.09661 14.9936 6.19342 15.1659 6.36575C15.3382 6.53808 15.435 6.77181 15.435 7.01552ZM9.03225 2.8708H12.2581C12.4162 2.8708 12.5679 2.93363 12.6797 3.04547C12.7916 3.1573 12.8544 3.30898 12.8544 3.46714C12.8544 3.62529 12.7916 3.77697 12.6797 3.88881C12.5679 4.00064 12.4162 4.06347 12.2581 4.06347H9.03225C8.87409 4.06347 8.72241 4.00064 8.61058 3.88881C8.49875 3.77697 8.43592 3.62529 8.43592 3.46714C8.43592 3.30898 8.49875 3.1573 8.61058 3.04547C8.72241 2.93363 8.87409 2.8708 9.03225 2.8708Z" fill="#FEFEFE" stroke="#FEFEFE" stroke-width="0.0976562"/>
</svg>
