<svg width="21" height="21" viewBox="0 0 21 21" fill="none" xmlns="http://www.w3.org/2000/svg">
<path d="M19.2692 9.76923H13.4231C13.2293 9.76923 13.0434 9.84622 12.9063 9.98327C12.7693 10.1203 12.6923 10.3062 12.6923 10.5V19.2692C12.6923 19.463 12.7693 19.6489 12.9063 19.786C13.0434 19.923 13.2293 20 13.4231 20H19.2692C19.463 20 19.6489 19.923 19.786 19.786C19.923 19.6489 20 19.463 20 19.2692V10.5C20 10.3062 19.923 10.1203 19.786 9.98327C19.6489 9.84622 19.463 9.76923 19.2692 9.76923ZM19.2692 1H13.4231C13.2293 1 13.0434 1.07699 12.9063 1.21404C12.7693 1.35108 12.6923 1.53696 12.6923 1.73077V4.66846C12.6923 4.86227 12.7693 5.04815 12.9063 5.18519C13.0434 5.32224 13.2293 5.39923 13.4231 5.39923H19.2692C19.463 5.39923 19.6489 5.32224 19.786 5.18519C19.923 5.04815 20 4.86227 20 4.66846V1.73077C20 1.53696 19.923 1.35108 19.786 1.21404C19.6489 1.07699 19.463 1 19.2692 1ZM7.57692 1H1.73077C1.53696 1 1.35108 1.07699 1.21404 1.21404C1.07699 1.35108 1 1.53696 1 1.73077V10.5C1 10.6938 1.07699 10.8797 1.21404 11.0167C1.35108 11.1538 1.53696 11.2308 1.73077 11.2308H7.57692C7.77073 11.2308 7.95661 11.1538 8.09365 11.0167C8.2307 10.8797 8.30769 10.6938 8.30769 10.5V1.73077C8.30769 1.53696 8.2307 1.35108 8.09365 1.21404C7.95661 1.07699 7.77073 1 7.57692 1ZM7.57692 15.6008H1.73077C1.53696 15.6008 1.35108 15.6778 1.21404 15.8148C1.07699 15.9519 1 16.1377 1 16.3315V19.2692C1 19.463 1.07699 19.6489 1.21404 19.786C1.35108 19.923 1.53696 20 1.73077 20H7.57692C7.77073 20 7.95661 19.923 8.09365 19.786C8.2307 19.6489 8.30769 19.463 8.30769 19.2692V16.3315C8.30769 16.1377 8.2307 15.9519 8.09365 15.8148C7.95661 15.6778 7.77073 15.6008 7.57692 15.6008Z" fill="#FEFEFE" stroke="#FEFEFE" stroke-width="1.78571" stroke-linecap="round" stroke-linejoin="round"/>
</svg>
