<svg width="32.000000" height="32.000000" viewBox="0 0 32 32" fill="none" xmlns="http://www.w3.org/2000/svg" xmlns:xlink="http://www.w3.org/1999/xlink">
	<desc>
			Created with Pixso.
	</desc>
	<defs>
		<clipPath id="clip26_2155">
			<rect id="facebook-bb9285d6e30e2bc65095.svg" width="32.000000" height="32.000000" fill="white" fill-opacity="0"/>
		</clipPath>
	</defs>
	<g clip-path="url(#clip26_2155)">
		<path id="Vector" d="M16 32C24.8364 32 32 24.8367 32 16C32 7.16333 24.8364 0 16 0C7.16357 0 0 7.16333 0 16C0 24.8367 7.16357 32 16 32Z" fill="#24A1E0" fill-opacity="1.000000" fill-rule="evenodd"/>
		<path id="Vector" d="M19.6777 15.9846L17.3052 15.9846L17.3052 24L13.71 24L13.71 15.9846L12 15.9846L12 13.1677L13.71 13.1677L13.71 11.3447C13.71 10.0413 14.3813 8 17.3369 8L20 8.01025L20 10.7446L18.0679 10.7446C17.751 10.7446 17.3052 10.8906 17.3052 11.5125L17.3052 13.1704L19.9917 13.1704L19.6777 15.9846Z" fill="#FEFEFE" fill-opacity="1.000000" fill-rule="nonzero"/>
	</g>
</svg>
