<svg width="32.000000" height="32.000000" viewBox="0 0 32 32" fill="none" xmlns="http://www.w3.org/2000/svg" xmlns:xlink="http://www.w3.org/1999/xlink">
	<desc>
			Created with Pixso.
	</desc>
	<defs>
		<clipPath id="clip26_2160">
			<rect id="instagram-66c66587d3d7f6895ae8.svg" width="32.000000" height="32.000000" fill="white" fill-opacity="0"/>
		</clipPath>
	</defs>
	<g clip-path="url(#clip26_2160)">
		<path id="Vector" d="M16 32C24.8364 32 32 24.8367 32 16C32 7.16333 24.8364 0 16 0C7.16357 0 0 7.16333 0 16C0 24.8367 7.16357 32 16 32Z" fill="#24A1E0" fill-opacity="1.000000" fill-rule="evenodd"/>
		<path id="Vector" d="M7.0542 12.0696C7.03662 12.2058 7.01904 12.342 7 12.478L7 19.5193C7.01025 19.5916 7.02246 19.6638 7.03467 19.7358C7.06055 19.8916 7.08643 20.0474 7.09668 20.2041C7.271 22.855 9.0752 24.8188 11.6855 24.9185C14.5718 25.0283 17.4678 25.0256 20.354 24.9199C22.9644 24.8245 24.8535 22.8652 24.9351 20.2183C25.0215 17.4072 25.0215 14.5896 24.9351 11.7788C24.8535 9.13184 22.9634 7.17236 20.354 7.07715C17.4678 6.97168 14.5718 6.97681 11.6851 7.07739C9.2876 7.16113 7.61084 8.79541 7.18115 11.1973C7.12939 11.4863 7.0918 11.7778 7.0542 12.0696ZM17.229 23.3589C16.8198 23.355 16.4111 23.3511 16.0024 23.3511C15.5991 23.3511 15.1953 23.355 14.792 23.3589C13.8906 23.3672 12.9893 23.3757 12.0898 23.3418C10.0376 23.2646 8.76172 22.0388 8.70605 19.9668C8.63525 17.323 8.63525 14.6743 8.70605 12.0303C8.76172 9.95825 10.0376 8.70312 12.0894 8.65967C14.7134 8.60376 17.3408 8.60327 19.9648 8.65967C22.0322 8.7041 23.3057 9.98511 23.354 12.0801C23.4136 14.6914 23.4136 17.3059 23.354 19.917C23.3057 22.0122 22.0332 23.2642 19.9648 23.3418C19.0537 23.376 18.1411 23.3674 17.229 23.3589Z" fill="#FEFEFE" fill-opacity="1.000000" fill-rule="evenodd"/>
		<path id="Vector" d="M11.4141 15.9988C11.4141 13.4302 13.4678 11.3477 16.001 11.3477C18.5342 11.3477 20.5879 13.4302 20.5879 15.9988C20.5879 18.5676 18.5342 20.6499 16.001 20.6499C13.4678 20.6499 11.4141 18.5676 11.4141 15.9988ZM12.9932 15.9985C12.9932 17.6831 14.3398 19.0486 16.001 19.0486C17.6621 19.0486 19.0088 17.6831 19.0088 15.9985C19.0088 14.3142 17.6621 12.949 16.001 12.949C14.3398 12.949 12.9932 14.3142 12.9932 15.9985Z" fill="#FEFEFE" fill-opacity="1.000000" fill-rule="evenodd"/>
		<path id="Vector" d="M21.9463 11.1379C21.9463 11.749 21.4575 12.2444 20.855 12.2444C20.2524 12.2444 19.7637 11.749 19.7637 11.1379C19.7637 10.5266 20.2524 10.0312 20.855 10.0312C21.4575 10.0312 21.9463 10.5266 21.9463 11.1379Z" fill="#FEFEFE" fill-opacity="1.000000" fill-rule="nonzero"/>
	</g>
</svg>
