<svg width="15.000000" height="15.000000" viewBox="0 0 15 15" fill="none" xmlns="http://www.w3.org/2000/svg" xmlns:xlink="http://www.w3.org/1999/xlink">
	<desc>
			Created with Pixso.
	</desc>
	<defs>
		<clipPath id="clip21_2116">
			<rect id="logos:telegram" width="15.000000" height="15.000000" fill="white" fill-opacity="0"/>
		</clipPath>
		<linearGradient id="paint_linear_21_2117_0" x1="750.000000" y1="0.000000" x2="750.000000" y2="1500.000000" gradientUnits="userSpaceOnUse">
			<stop stop-color="#2AABEE"/>
			<stop offset="1.000000" stop-color="#229ED9"/>
		</linearGradient>
	</defs>
	<rect id="logos:telegram" width="15.000000" height="15.000000" fill="#FFFFFF" fill-opacity="0"/>
	<g clip-path="url(#clip21_2116)">
		<path id="Vector" d="M7.5 0C5.51123 0 3.60254 0.790771 2.19727 2.19678C0.790527 3.60327 0.000488281 5.51074 0 7.5C0 9.48828 0.791016 11.3972 2.19727 12.8032C3.60254 14.2092 5.51123 15 7.5 15C9.48877 15 11.3975 14.2092 12.8027 12.8032C14.209 11.3972 15 9.48828 15 7.5C15 5.51172 14.209 3.60278 12.8027 2.19678C11.3975 0.790771 9.48877 0 7.5 0Z" fill="url(#paint_linear_21_2117_0)" fill-opacity="1.000000" fill-rule="nonzero"/>
		<path id="Vector" d="M3.39502 7.4209C5.58154 6.46826 7.03955 5.84033 7.76807 5.53687C9.85205 4.67041 10.2842 4.52002 10.5669 4.51489C10.6289 4.51392 10.7671 4.5293 10.8574 4.60229C10.9321 4.66382 10.9536 4.74707 10.9639 4.80542C10.9731 4.86377 10.9863 4.99683 10.9756 5.10059C10.8633 6.28662 10.3745 9.16431 10.126 10.4927C10.022 11.0547 9.81445 11.2432 9.61377 11.2617C9.17822 11.3018 8.84766 10.9739 8.42578 10.6973C7.76611 10.2646 7.39307 9.99536 6.75244 9.573C6.01172 9.08496 6.49219 8.81689 6.91406 8.37866C7.02393 8.26392 8.94385 6.51831 8.97998 6.36011C8.98486 6.34009 8.98926 6.26636 8.94482 6.22754C8.90137 6.18848 8.83691 6.2019 8.79004 6.2124C8.72314 6.22729 7.66992 6.92432 5.62598 8.30322C5.32715 8.50879 5.05664 8.60913 4.81299 8.60376C4.54541 8.59814 4.02979 8.45239 3.64697 8.32788C3.17822 8.17529 2.8042 8.09448 2.83691 7.83521C2.85352 7.7002 3.03955 7.56201 3.39502 7.4209Z" fill="#FFFFFF" fill-opacity="1.000000" fill-rule="nonzero"/>
	</g>
</svg>
