<svg width="32.000000" height="32.000000" viewBox="0 0 32 32" fill="none" xmlns="http://www.w3.org/2000/svg" xmlns:xlink="http://www.w3.org/1999/xlink">
	<desc>
			Created with Pixso.
	</desc>
	<defs>
		<clipPath id="clip26_2150">
			<rect id="telegram-36a1a3b0e7042c6a3257.svg" width="32.000000" height="32.000000" fill="white" fill-opacity="0"/>
		</clipPath>
	</defs>
	<g clip-path="url(#clip26_2150)">
		<path id="Vector" d="M16 32C24.8364 32 32 24.8367 32 16C32 7.16333 24.8364 0 16 0C7.16357 0 0 7.16333 0 16C0 24.8367 7.16357 32 16 32Z" fill="#24A1E0" fill-opacity="1.000000" fill-rule="evenodd"/>
		<path id="Vector" d="M22.0132 23.2561L24.9805 9.07788C25.1255 8.38354 24.4419 7.80493 23.7808 8.0625L6.40381 14.8313C5.84082 15.0503 5.875 15.8579 6.4541 16.0288L10.8701 17.332L12.5181 22.5588C12.6899 23.105 13.3823 23.2705 13.7827 22.8616L16.0659 20.5315L20.5454 23.8181C21.0933 24.2202 21.874 23.9214 22.0132 23.2561ZM11.8198 16.6313L21.3516 10.8232C21.5708 10.6897 21.7954 10.9861 21.6021 11.1541L13.5303 18.1665C13.4502 18.2363 13.3989 18.333 13.3867 18.438L13.0762 21.1521C13.0659 21.2405 12.9399 21.2522 12.9131 21.1672L11.6343 17.1196C11.5757 16.9343 11.6523 16.7334 11.8198 16.6313Z" fill="#FEFEFE" fill-opacity="1.000000" fill-rule="evenodd"/>
	</g>
</svg>
