<svg width="50.000000" height="50.000000" viewBox="0 0 50 50" fill="none" xmlns="http://www.w3.org/2000/svg" xmlns:xlink="http://www.w3.org/1999/xlink">
	<defs/>
	<rect id="Vector" width="19.000000" height="19.000000" transform="translate(16.000000 15.000000)" fill="#FFFFFF" fill-opacity="0"/>
	<path id="Vector" d="M34.269 23.7693L28.4229 23.7693C28.2295 23.7693 28.0435 23.8462 27.9062 23.9832C27.7695 24.1204 27.6924 24.3062 27.6924 24.5L27.6924 33.2693C27.6924 33.4631 27.7695 33.6489 27.9062 33.7859C28.0435 33.9231 28.2295 34 28.4229 34L34.269 34C34.4629 34 34.6489 33.9231 34.7861 33.7859C34.9229 33.6489 35 33.4631 35 33.2693L35 24.5C35 24.3062 34.9229 24.1204 34.7861 23.9832C34.6489 23.8462 34.4629 23.7693 34.269 23.7693ZM34.269 15L28.4229 15C28.2295 15 28.0435 15.0769 27.9062 15.2141C27.7695 15.3511 27.6924 15.5369 27.6924 15.7307L27.6924 18.6685C27.6924 18.8623 27.7695 19.0481 27.9062 19.1853C28.0435 19.3223 28.2295 19.3992 28.4229 19.3992L34.269 19.3992C34.4629 19.3992 34.6489 19.3223 34.7861 19.1853C34.9229 19.0481 35 18.8623 35 18.6685L35 15.7307C35 15.5369 34.9229 15.3511 34.7861 15.2141C34.6489 15.0769 34.4629 15 34.269 15ZM22.5771 15L16.731 15C16.5371 15 16.3511 15.0769 16.2139 15.2141C16.0771 15.3511 16 15.5369 16 15.7307L16 24.5C16 24.6938 16.0771 24.8796 16.2139 25.0168C16.3511 25.1538 16.5371 25.2307 16.731 25.2307L22.5771 25.2307C22.7705 25.2307 22.9565 25.1538 23.0938 25.0168C23.2305 24.8796 23.3076 24.6938 23.3076 24.5L23.3076 15.7307C23.3076 15.5369 23.2305 15.3511 23.0938 15.2141C22.9565 15.0769 22.7705 15 22.5771 15ZM22.5771 29.6008L16.731 29.6008C16.5371 29.6008 16.3511 29.6777 16.2139 29.8147C16.0771 29.9519 16 30.1377 16 30.3315L16 33.2693C16 33.4631 16.0771 33.6489 16.2139 33.7859C16.3511 33.9231 16.5371 34 16.731 34L22.5771 34C22.7705 34 22.9565 33.9231 23.0938 33.7859C23.2305 33.6489 23.3076 33.4631 23.3076 33.2693L23.3076 30.3315C23.3076 30.1377 23.2305 29.9519 23.0938 29.8147C22.9565 29.6777 22.7705 29.6008 22.5771 29.6008Z" fill="#FEFEFE" fill-opacity="1.000000" fill-rule="evenodd"/>
	<path id="Vector" d="M28.4229 23.7693C28.2295 23.7693 28.0435 23.8462 27.9062 23.9832C27.7695 24.1204 27.6924 24.3062 27.6924 24.5L27.6924 33.2693C27.6924 33.4631 27.7695 33.6489 27.9062 33.7859C28.0435 33.9231 28.2295 34 28.4229 34L34.269 34C34.4629 34 34.6489 33.9231 34.7861 33.7859C34.9229 33.6489 35 33.4631 35 33.2693L35 24.5C35 24.3062 34.9229 24.1204 34.7861 23.9832C34.6489 23.8462 34.4629 23.7693 34.269 23.7693L28.4229 23.7693ZM28.4229 15C28.2295 15 28.0435 15.0769 27.9062 15.2141C27.7695 15.3511 27.6924 15.5369 27.6924 15.7307L27.6924 18.6685C27.6924 18.8623 27.7695 19.0481 27.9062 19.1853C28.0435 19.3223 28.2295 19.3992 28.4229 19.3992L34.269 19.3992C34.4629 19.3992 34.6489 19.3223 34.7861 19.1853C34.9229 19.0481 35 18.8623 35 18.6685L35 15.7307C35 15.5369 34.9229 15.3511 34.7861 15.2141C34.6489 15.0769 34.4629 15 34.269 15L28.4229 15ZM16.731 15C16.5371 15 16.3511 15.0769 16.2139 15.2141C16.0771 15.3511 16 15.5369 16 15.7307L16 24.5C16 24.6938 16.0771 24.8796 16.2139 25.0168C16.3511 25.1538 16.5371 25.2307 16.731 25.2307L22.5771 25.2307C22.7705 25.2307 22.9565 25.1538 23.0938 25.0168C23.2305 24.8796 23.3076 24.6938 23.3076 24.5L23.3076 15.7307C23.3076 15.5369 23.2305 15.3511 23.0938 15.2141C22.9565 15.0769 22.7705 15 22.5771 15L16.731 15ZM16.731 29.6008C16.5371 29.6008 16.3511 29.6777 16.2139 29.8147C16.0771 29.9519 16 30.1377 16 30.3315L16 33.2693C16 33.4631 16.0771 33.6489 16.2139 33.7859C16.3511 33.9231 16.5371 34 16.731 34L22.5771 34C22.7705 34 22.9565 33.9231 23.0938 33.7859C23.2305 33.6489 23.3076 33.4631 23.3076 33.2693L23.3076 30.3315C23.3076 30.1377 23.2305 29.9519 23.0938 29.8147C22.9565 29.6777 22.7705 29.6008 22.5771 29.6008L16.731 29.6008Z" stroke="#FEFEFE" stroke-opacity="1.000000" stroke-width="1.785714" stroke-linejoin="round"/>
	<rect id="streamline:dashboard-3" rx="5.000000" width="49.000000" height="49.000000" transform="translate(0.500000 0.500000)" stroke="#FEFEFE" stroke-opacity="1.000000" stroke-width="1.000000"/>
</svg>
