<svg width="50.000000" height="50.000000" viewBox="0 0 50 50" fill="none" xmlns="http://www.w3.org/2000/svg" xmlns:xlink="http://www.w3.org/1999/xlink">
	<desc>
			Created with Pixso.
	</desc>
	<defs>
		<clipPath id="clip21_2144">
			<rect id="ph:piggy-bank" rx="5.000000" width="49.000000" height="49.000000" transform="translate(0.500000 0.500000)" fill="white" fill-opacity="0"/>
		</clipPath>
	</defs>
	<g clip-path="url(#clip21_2144)">
		<path id="Vector" d="M30.4839 23.7756C30.4839 23.967 30.4272 24.1541 30.3208 24.3132C30.2144 24.4724 30.0635 24.5964 29.8862 24.6697C29.7095 24.7429 29.5151 24.762 29.3271 24.7246C29.1396 24.6873 28.9673 24.5952 28.832 24.4597C28.6963 24.3245 28.6045 24.1521 28.5669 23.9644C28.5298 23.7766 28.5488 23.582 28.6221 23.4053C28.6953 23.2283 28.8193 23.0771 28.9785 22.9709C29.1377 22.8645 29.3247 22.8079 29.5161 22.8079C29.7729 22.8079 30.019 22.9097 30.2002 23.0913C30.3818 23.2727 30.4839 23.5188 30.4839 23.7756ZM27.2578 19.582L24.0322 19.582C23.8613 19.582 23.6973 19.6499 23.5762 19.771C23.4551 19.8918 23.3872 20.0562 23.3872 20.2271C23.3872 20.3982 23.4551 20.5623 23.5762 20.6833C23.6973 20.8044 23.8613 20.8723 24.0322 20.8723L27.2578 20.8723C27.4292 20.8723 27.5933 20.8044 27.7144 20.6833C27.8354 20.5623 27.9033 20.3982 27.9033 20.2271C27.9033 20.0562 27.8354 19.8918 27.7144 19.771C27.5933 19.6499 27.4292 19.582 27.2578 19.582ZM35 23.4529L35 26.0337C35 26.5469 34.7959 27.0393 34.4331 27.4021C34.0703 27.7651 33.5776 27.969 33.0645 27.969L32.874 27.969L31.5669 31.6287C31.4775 31.8794 31.3125 32.0962 31.0952 32.2495C30.8774 32.4028 30.6177 32.4854 30.3516 32.4851L29.3257 32.4851C29.0596 32.4854 28.7998 32.4028 28.5825 32.2495C28.3647 32.0962 28.2002 31.8794 28.1104 31.6287L27.9556 31.1948L23.3345 31.1948L23.1797 31.6287C23.0903 31.8794 22.9253 32.0962 22.708 32.2495C22.4902 32.4028 22.2305 32.4854 21.9644 32.4851L20.9385 32.4851C20.6724 32.4854 20.4131 32.4028 20.1953 32.2495C19.9775 32.0962 19.813 31.8794 19.7231 31.6287L18.7095 28.7932C17.7451 27.7019 17.1416 26.3391 16.9805 24.8916C16.7725 25.001 16.5981 25.1653 16.4766 25.3665C16.355 25.5676 16.2905 25.7983 16.2905 26.0337C16.2905 26.2046 16.2222 26.3689 16.1016 26.4897C15.9805 26.6108 15.8164 26.6787 15.645 26.6787C15.4741 26.6787 15.3101 26.6108 15.189 26.4897C15.0679 26.3689 15 26.2046 15 26.0337C15.001 25.4583 15.1943 24.8997 15.5488 24.4468C15.9038 23.9939 16.3999 23.6724 16.958 23.5337C17.1021 21.7556 17.9097 20.0969 19.2202 18.8867C20.5308 17.6765 22.2485 17.0037 24.0322 17.0012L24.9097 17.0012L25.542 17.0012L25.9209 17.0012L26.2158 17.0012C26.2158 17.0012 26.4277 16.9983 26.5635 17.0012C28.2529 17.0388 29.5288 17.4739 30.6943 18.2917C31.8599 19.1094 32.6069 20.0754 33.1274 21.2756C33.1621 21.3562 33.1958 21.4368 33.228 21.5176C33.7129 21.5586 34.1641 21.7805 34.4922 22.1392C34.8203 22.4978 35.002 22.9668 35 23.4529ZM33.7095 23.4529C33.7095 23.2817 33.6416 23.1177 33.5205 22.9968C33.3999 22.8757 33.2358 22.8079 33.0645 22.8079L32.7695 22.8079C32.6318 22.8079 32.498 22.7642 32.3872 22.6829C32.2764 22.6018 32.1943 22.4873 32.1533 22.3562C31.7837 21.1765 31.0469 20.146 30.0498 19.4148C29.0532 18.6836 27.8491 18.29 26.6128 18.2917L24.0322 18.2917C22.9053 18.2915 21.8027 18.6194 20.8594 19.2351C19.9155 19.8508 19.1714 20.728 18.7173 21.7593C18.2637 22.7908 18.1196 23.9319 18.3032 25.0437C18.4863 26.1555 18.9897 27.1899 19.751 28.0208C19.8091 28.084 19.854 28.1582 19.8833 28.2393L20.9385 31.1948L21.9644 31.1948L22.2725 30.3328C22.3174 30.2075 22.3994 30.0991 22.5083 30.0225C22.6172 29.9458 22.7466 29.9045 22.8799 29.9045L28.4106 29.9045C28.5435 29.9045 28.6733 29.9458 28.7817 30.0225C28.8906 30.0991 28.9731 30.2075 29.0176 30.3328L29.3257 31.1948L30.3516 31.1948L31.812 27.1069C31.8569 26.9817 31.939 26.8733 32.0479 26.7966C32.1567 26.72 32.2861 26.6787 32.4194 26.6787L33.0645 26.6787C33.2358 26.6787 33.3999 26.6108 33.5205 26.4897C33.6416 26.3689 33.7095 26.2046 33.7095 26.0337L33.7095 23.4529Z" fill="#FEFEFE" fill-opacity="1.000000" fill-rule="evenodd"/>
	</g>
	<rect id="ph:piggy-bank" rx="5.000000" width="49.000000" height="49.000000" transform="translate(0.500000 0.500000)" stroke="#FEFEFE" stroke-opacity="1.000000" stroke-width="1.000000"/>
</svg>
