<svg width="50.000000" height="50.000000" viewBox="0 0 50 50" fill="none" xmlns="http://www.w3.org/2000/svg" xmlns:xlink="http://www.w3.org/1999/xlink">
	<desc>
			Created with Pixso.
	</desc>
	<defs>
		<clipPath id="clip21_2134">
			<rect id="sprite-link_href" rx="5.000000" width="49.000000" height="49.000000" transform="translate(0.500000 0.500000)" fill="white" fill-opacity="0"/>
		</clipPath>
	</defs>
	<g clip-path="url(#clip21_2134)">
		<path id="Vector" d="M20 21.8999L24 21.8999L24 20L20 20C18.6738 20 17.4023 20.5269 16.4644 21.4644C15.5269 22.4021 15 23.6738 15 25C15 26.3262 15.5269 27.5979 16.4644 28.5356C17.4023 29.4731 18.6738 30 20 30L24 30L24 28.1001L20 28.1001C19.1777 28.1001 18.3892 27.7734 17.8081 27.1919C17.2266 26.6106 16.8999 25.8223 16.8999 25C16.8999 24.1777 17.2266 23.3894 17.8081 22.8081C18.3892 22.2266 19.1777 21.8999 20 21.8999ZM21 26L29 26L29 24L21 24L21 26ZM26 20L26 21.8999L30 21.8999C30.8223 21.8999 31.6108 22.2266 32.1919 22.8081C32.7734 23.3894 33.1001 24.1777 33.1001 25C33.1001 25.8223 32.7734 26.6106 32.1919 27.1919C31.6108 27.7734 30.8223 28.1001 30 28.1001L26 28.1001L26 30L30 30C31.3262 30 32.5977 29.4731 33.5356 28.5356C34.4731 27.5979 35 26.3262 35 25C35 23.6738 34.4731 22.4021 33.5356 21.4644C32.5977 20.5269 31.3262 20 30 20L26 20Z" fill="#FEFEFE" fill-opacity="1.000000" fill-rule="evenodd"/>
	</g>
	<rect id="sprite-link_href" rx="5.000000" width="49.000000" height="49.000000" transform="translate(0.500000 0.500000)" stroke="#FEFEFE" stroke-opacity="1.000000" stroke-width="1.000000"/>
</svg>
