<svg width="50.000000" height="50.000000" viewBox="0 0 50 50" fill="none" xmlns="http://www.w3.org/2000/svg" xmlns:xlink="http://www.w3.org/1999/xlink">
	<desc>
			Created with Pixso.
	</desc>
	<defs>
		<clipPath id="clip21_2139">
			<rect id="ph:student" rx="5.000000" width="49.000000" height="49.000000" transform="translate(0.500000 0.500000)" fill="white" fill-opacity="0"/>
		</clipPath>
	</defs>
	<g clip-path="url(#clip21_2139)">
		<path id="Vector" d="M34.4736 18.1165L25.2432 15.0396C25.0854 14.9868 24.9146 14.9868 24.7568 15.0396L15.5259 18.1165C15.3726 18.1675 15.2397 18.2654 15.145 18.3965C15.0508 18.5273 15 18.6848 15 18.8462L15 26.5383C15 26.7424 15.0811 26.938 15.2251 27.0823C15.3696 27.2266 15.5654 27.3076 15.769 27.3076C15.9731 27.3076 16.1689 27.2266 16.313 27.0823C16.4575 26.938 16.5386 26.7424 16.5386 26.5383L16.5386 19.9136L19.7681 20.9895C18.9102 22.3757 18.6372 24.0459 19.0093 25.6333C19.3818 27.2207 20.3687 28.5955 21.7539 29.4558C20.0229 30.1345 18.5269 31.3623 17.4326 33.0413C17.376 33.1257 17.3364 33.2209 17.3164 33.3208C17.2964 33.4209 17.2969 33.5237 17.3169 33.6238C17.3374 33.7236 17.3774 33.8184 17.4346 33.9028C17.4917 33.9871 17.5654 34.0593 17.6509 34.115C17.7358 34.1707 17.8315 34.2087 17.9321 34.2273C18.0322 34.2456 18.1353 34.2439 18.2349 34.2222C18.3345 34.2004 18.4287 34.1592 18.5122 34.1008C18.5957 34.0422 18.6665 33.9678 18.7212 33.8816C20.1699 31.6584 22.4585 30.3845 25 30.3845C27.541 30.3845 29.8296 31.6584 31.2788 33.8816C31.3916 34.0493 31.5659 34.1658 31.7637 34.2061C31.9619 34.2463 32.168 34.207 32.3369 34.0964C32.5063 33.9861 32.6255 33.8135 32.6685 33.616C32.7114 33.4185 32.6753 33.2122 32.5674 33.0413C31.4731 31.3623 29.9712 30.1345 28.2461 29.4558C29.6299 28.5955 30.6157 27.2217 30.9878 25.6355C31.3604 24.0493 31.0884 22.3801 30.2314 20.9941L34.4736 19.5808C34.627 19.5298 34.7603 19.4319 34.855 19.3008C34.9492 19.1699 35 19.0125 35 18.8511C35 18.6895 34.9492 18.5322 34.855 18.4011C34.7603 18.2703 34.627 18.1721 34.4736 18.1211L34.4736 18.1165ZM29.6152 24.2307C29.6152 24.9604 29.4429 25.6797 29.1108 26.3296C28.7793 26.9797 28.2983 27.5417 27.7075 27.9697C27.1167 28.3977 26.4326 28.6797 25.7119 28.7922C24.9907 28.9048 24.2534 28.8447 23.5601 28.6172C22.8667 28.3894 22.2373 28.0007 21.7236 27.4827C21.2095 26.9648 20.8257 26.3323 20.6035 25.6375C20.3813 24.9424 20.3271 24.2046 20.4453 23.4846C20.5635 22.7644 20.8511 22.0828 21.2837 21.4951L24.7568 22.6489C24.9146 22.7017 25.0854 22.7017 25.2432 22.6489L28.7163 21.4951C29.3008 22.2876 29.6157 23.2463 29.6152 24.2307ZM25 21.1125L18.2017 18.8462L25 16.5798L31.7979 18.8462L25 21.1125Z" fill="#FEFEFE" fill-opacity="1.000000" fill-rule="evenodd"/>
	</g>
	<rect id="ph:student" rx="5.000000" width="49.000000" height="49.000000" transform="translate(0.500000 0.500000)" stroke="#FEFEFE" stroke-opacity="1.000000" stroke-width="1.000000"/>
</svg>
